{"title":"The Stepfather 2009 DVD9rip English Klam","uid":10717536,"size":1580098205,"categoryP":"video","categoryS":"movies","magnet":"?xt=urn:btih:ab3ac5af2c380c0187a18d2c22ae5ff53a9ea597&amp;dn=The+Stepfather+2009+DVD9rip+English+Klam&amp;tr=udp%3A%2F%2Ftracker.openbittorrent.com%3A80&amp;tr=udp%3A%2F%2Fopen.demonii.com%3A1337&amp;tr=udp%3A%2F%2Ftracker.coppersurfer.tk%3A6969&amp;tr=udp%3A%2F%2Fexodus.desync.com%3A6969","seeders":0,"leechers":5,"uploader":"Klambake","files":-1,"time":1407429427,"description":"With: Penn Badgley, Dylan Walsh and Amber Heard\n\nMichael Harding keert terug naar huis na een periode op de militaire school gezeten te hebben. Eenmaal thuis ziet hij dat zijn moeder erg gelukkig is met haar nieuwe vriend, maar Michael vertrouwt het niet helemaal. David, de nieuwe vriend van zijn moeder, is verdacht vaak aanwezig om een helpende hand te bieden. Is hij echt zo aardig als hij lijkt, of zijn de twijfels van Michael terecht?\n\nMichael returns home from military school to find his mother happily in love and living with her new boyfriend. As the two men get to know each other, he becomes more and more suspicious of the man who is always there with a helpful hand.\n &lt;a href=&quot;\nhttp://www.imdb.com/title/tt0814335&quot; rel=&quot;nofollow&quot; target=&quot;_NEW&quot;&gt;\nhttp://www.imdb.com/title/tt0814335&lt;/a&gt;\t\n\n--------------------- Dutch Friends 4ever ---------------------\n---------------------------------------------------------------\n- Bezoek ook eens mijn vrienden op: &lt;a href=&quot; http://www.Film-Test.nl&quot; rel=&quot;nofollow&quot; target=&quot;_NEW&quot;&gt; http://www.Film-Test.nl&lt;/a&gt; --\n----- voor mijn Nederlandse Sync. ondertitels ---- en meer ----\n------- http://www.Film-Test.nl ---- Over Films en meer -------\n---------------------------------------------------------------\n &lt;a href=&quot;\nhttp://i.imgur.com/Iq42gtQ.jpg&quot; rel=&quot;nofollow&quot; target=&quot;_NEW&quot;&gt;\nhttp://i.imgur.com/Iq42gtQ.jpg&lt;/a&gt; &lt;a href=&quot;\nhttp://i.imgur.com/dWvUPZf.jpg&quot; rel=&quot;nofollow&quot; target=&quot;_NEW&quot;&gt;\nhttp://i.imgur.com/dWvUPZf.jpg&lt;/a&gt; &lt;a href=&quot;\nhttp://i.imgur.com/vhyLFBj.jpg&quot; rel=&quot;nofollow&quot; target=&quot;_NEW&quot;&gt;\nhttp://i.imgur.com/vhyLFBj.jpg&lt;/a&gt;\n\nGeneral:\n\nComplete name                            : The StepfatherThe Stepfather.avi\nFormat                                   : AVI\nFormat/Info                              : Audio Video Interleave\nFile size                                : 1.47 GiB\nDuration                                 : 1h 37mn\nOverall bit rate                         : 2 150 Kbps\n\nVideo:\n\nFormat                                   : MPEG-4 Visual\nFormat profile                           : Simple@L3\nFormat settings, BVOP                    : No\nFormat settings, QPel                    : No\nFormat settings, GMC                     : No warppoints\nFormat settings, Matrix                  : Default (H.263)\nCodec ID                                 : XVID\nCodec ID/Hint                            : XviD\nDuration                                 : 1h 37mn\nBit rate                                 : 1 691 Kbps\nWidth                                    : 720 pixels\nHeight                                   : 304 pixels\nDisplay aspect ratio                     : 2.35:1\nFrame rate                               : 25.000 fps\nColor space                              : YUV\nChroma subsampling                       : 4:2:0\nBit depth                                : 8 bits\nScan type                                : Progressive\nCompression mode                         : Lossy\nBits/(Pixel*Frame)                       : 0.309\nStream size                              : 1.16 GiB (79%)\nWriting library                          : XviD 1.1.2 (UTC 2006-11-01)\n\nAudio:\n\nFormat                                   : AC-3\nFormat/Info                              : Audio Coding 3\nMode extension                           : CM (complete main)\nFormat settings, Endianness              : Big\nCodec ID                                 : 2000\nDuration                                 : 1h 37mn\nSource duration                          : 1h 37mn\nBit rate mode                            : Constant\nBit rate                                 : 448 Kbps\nChannel(s)                               : 6 channels\nChannel positions                        : Front: L C R, Side: L R, LFE\nSampling rate                            : 48.0 KHz\nBit depth                                : 16 bits\nCompression mode                         : Lossy\nStream size                              : 314 MiB (21%)\nAlignment                                : Aligned on interleaves\nInterleave, duration                     : 32 ms (0.80 video frame)\n\n\n\n","torrent":{"xt":"urn:btih:ab3ac5af2c380c0187a18d2c22ae5ff53a9ea597","amp;dn":"The+Stepfather+2009+DVD9rip+English+Klam","amp;tr":["udp%3A%2F%2Ftracker.openbittorrent.com%3A80","udp%3A%2F%2Fopen.demonii.com%3A1337","udp%3A%2F%2Ftracker.coppersurfer.tk%3A6969","udp%3A%2F%2Fexodus.desync.com%3A6969"],"infoHash":"ab3ac5af2c380c0187a18d2c22ae5ff53a9ea597","infoHashBuffer":{"type":"Buffer","data":[171,58,197,175,44,56,12,1,135,161,141,44,34,174,95,245,58,158,165,151]},"announce":[],"urlList":[]}}